<?xml version="1.0" encoding="UTF-8"?>
<svg width="221px" height="35px" viewBox="0 0 221 35" version="1.1" xmlns="http://www.w3.org/2000/svg" xmlns:xlink="http://www.w3.org/1999/xlink">
    <!-- Generator: Sketch 46.1 (44463) - http://www.bohemiancoding.com/sketch -->
    <title>logo</title>
    <desc>Created with Sketch.</desc>
    <defs></defs>
    <g id="Symbols" stroke="none" stroke-width="1" fill="none" fill-rule="evenodd">
        <g id="Header/Light" transform="translate(-75.000000, -23.000000)">
            <g id="logo" transform="translate(75.000000, 23.000000)">
                <g id="logo1-black.-eps-copy" transform="translate(55.263158, 8.289474)" fill="#ffffff">
                    <polyline id="Fill-3" points="165.477352 3.25863467 165.480595 3.25863467 165.480595 0.48601853 153.100701 0.48601853 153.100701 3.25863467 165.477352 3.25863467"></polyline>
                    <polyline id="Fill-4" points="5.99841719 18.3207502 8.7738708 18.3207502 8.7738708 3.14797323 14.7532364 3.14797323 14.7532364 0.375357097 0.0186462489 0.375357097 0.0186462489 3.14797323 5.99841719 3.14797323 5.99841719 18.3207502"></polyline>
                    <path d="M21.1821387,3.14797323 L25.9316626,3.14797323 C27.4184983,3.14797323 28.7208982,4.60683953 28.7208982,6.2687878 C28.7208982,7.8152104 27.7350791,9.41149144 26.0832647,9.41149144 L21.1821387,9.41149144 L21.1821387,3.14797323 Z M21.1821387,12.1861343 L25.186218,12.1861343 L29.1428709,18.3207502 L32.4473105,18.3207502 L28.1963711,11.7321387 C30.1615236,10.8354974 31.4947304,8.74022648 31.4947304,6.2687878 C31.4947304,3.42239737 29.2612341,0.375357097 25.9316626,0.375357097 L18.4079012,0.375357097 L18.4079012,18.3207502 L21.1821387,18.3207502 L21.1821387,12.1861343 L21.1821387,12.1861343 Z" id="Fill-5"></path>
                    <polyline id="Fill-6" points="58.4020782 5.73534294 68.4390297 18.3207502 70.6749582 18.3207502 70.6749582 0.396435465 67.901126 0.396435465 67.901126 13.1833033 57.6898726 0.375357097 55.6310835 0.375357097 55.6310835 18.3207502 58.4020782 18.3207502 58.4020782 5.73534294"></polyline>
                    <path d="M89.3009394,13.1293913 C89.3009394,9.84481405 86.7399176,7.96275898 82.2692768,7.96275898 C78.4013962,7.96275898 78.4013962,6.13948012 78.3985587,5.48402394 C78.45166,3.35673015 80.8051409,3.04217604 82.2036096,3.04217604 C83.3661627,3.04217604 84.9097478,3.27930768 85.6669476,4.42645734 L86.2003925,5.23594775 L88.8465384,4.12284777 L88.0135375,2.93881096 C86.6977609,1.06486295 84.9600116,0.26429031 82.2036096,0.26429031 C78.9287608,0.26429031 75.6259426,1.86827307 75.6259426,5.45727062 C75.6259426,8.81156865 78.0483335,10.7353751 82.2692768,10.7353751 C85.0945889,10.7353751 86.5307554,11.5391906 86.5307554,13.1293913 C86.5307554,15.627178 82.5493759,15.6592009 82.3791275,15.6592009 C80.6332711,15.6592009 78.9016021,14.9405096 77.7402651,13.7455282 L76.97131,12.9579269 L74.8622571,14.7844486 L75.7487646,15.6697401 C77.0073864,16.930794 79.1792691,18.4314117 82.3791275,18.4314117 C85.7115365,18.4314117 89.3009394,16.7718955 89.3009394,13.1293913" id="Fill-7"></path>
                    <polyline id="Fill-8" points="111.210687 18.3207502 111.210687 0.375357097 109.030292 0.375357097 102.504916 11.276927 95.9767018 0.375357097 93.7967121 0.375357097 93.7967121 18.3207502 96.5685176 18.3207502 96.5685176 6.73129584 101.665024 15.2412817 103.342781 15.2412817 108.440909 6.73129584 108.440909 18.3207502 111.210687 18.3207502"></polyline>
                    <path d="M131.362823,9.56998456 L131.362823,0.375357097 L128.587775,0.375357097 L128.587775,9.56998456 C128.587775,13.7536353 126.980955,15.8764702 123.819605,15.8764702 C120.640825,15.8764702 119.025492,13.7536353 119.025492,9.56998456 L119.025492,0.375357097 L116.253281,0.375357097 L116.253281,9.56998456 C116.253281,15.2570905 119.081026,18.6535452 123.819605,18.6535452 C128.542781,18.6535452 131.362823,15.2570905 131.362823,9.56998456" id="Fill-9"></path>
                    <polyline id="Fill-10" points="140.776747 18.3207502 143.552606 18.3207502 143.552606 3.14797323 149.533187 3.14797323 149.533187 0.375357097 134.798597 0.375357097 134.798597 3.14797323 140.776747 3.14797323 140.776747 18.3207502"></polyline>
                    <polyline id="Fill-11" points="49.1190838 18.3207502 52.1466671 18.3207502 44.3395638 0.375357097 42.4137305 0.375357097 34.5774418 18.3207502 37.6107 18.3207502 43.3691481 5.10623472 49.1190838 18.3207502"></polyline>
                    <polyline id="Fill-12" points="165.448572 10.6693025 165.448572 7.89465963 153.103539 7.89465963 153.103539 18.4314117 165.480595 18.4314117 165.480595 15.6592009 155.873317 15.6592009 155.873317 10.6693025 165.448572 10.6693025"></polyline>
                </g>
                <g id="logo1.-eps">
                    <polyline id="Fill-1" fill="#23B695" points="27.847193 10.9545614 18.6623465 26.9293421 29.1419518 17.8367654 27.847193 10.9545614"></polyline>
                    <polyline id="Fill-2" fill="#29DEB3" points="37.0741667 10.9545614 27.847193 10.9545614 29.1419518 17.8367654 37.0741667 10.9545614"></polyline>
                    <polyline id="Fill-3" fill="#1B7A69" points="29.1419518 17.8367654 18.6623465 26.9293421 23.2845943 34.9372368 37.0741667 10.9545614 29.1419518 17.8367654"></polyline>
                    <polyline id="Fill-4" fill="#29DEB3" points="46.9401316 0.0247916667 0.00577850877 0.0247916667 16.660932 8.02523026 16.881261 8.02523026 46.9401316 0.0247916667"></polyline>
                    <polyline id="Fill-5" fill="#23B695" points="4.62541667 8.02523026 16.660932 8.02523026 0.00577850877 0.0247916667 4.62541667 8.02523026"></polyline>
                    <polyline id="Fill-6" fill="#1B7A69" points="42.3219846 8.02523026 46.9401316 0.0247916667 16.881261 8.02523026 16.8341009 8.10724781 24.064693 11.5801316 26.1082346 8.02523026 42.3219846 8.02523026"></polyline>
                    <polyline id="Fill-7" fill="#23B695" points="16.8341009 8.10724781 12.3236952 15.9511075 24.064693 11.5801316 16.8341009 8.10724781"></polyline>
                    <polyline id="Fill-8" fill="#1B7A69" points="12.3236952 15.9511075 16.9472478 23.9590022 24.064693 11.5801316 12.3236952 15.9511075"></polyline>
                </g>
            </g>
        </g>
    </g>
</svg>
